<svg id="Layer_1" data-name="Layer 1" xmlns="http://www.w3.org/2000/svg" viewBox="0 0 81.39 79.83"><defs><style>.cls-1{fill:#59beaa;}</style></defs><path class="cls-1" d="M19,45.93a3.5,3.5,0,0,0,.1-1.43q0-13.05,0-26.1v-.91c0-1.4.36-1.85,1.68-2.24,3-.87,6-1.75,9-2.61L47.79,7.42c.25-.07.5-.16.75-.21a1.63,1.63,0,0,1,1.94,1.28,4.55,4.55,0,0,1,.05.91V44.59a6.94,6.94,0,0,1-3.39,6.19,7.19,7.19,0,1,1-3.87-13.29,8.86,8.86,0,0,1,3.84,1V20.17c-1.57.45-3.06.86-4.54,1.3l-18.9,5.6c-1.45.43-1.23.27-1.23,1.66q0,11.69,0,23.37a7.09,7.09,0,0,1-6.65,7.3,7.19,7.19,0,1,1-.18-14.35,8,8,0,0,1,2.51.61A2,2,0,0,0,19,45.93Zm3.45-22,1.33-.37L42,18.2c1.44-.43,2.9-.84,4.34-1.28.4-.12.91-.2.91-.77,0-1.51,0-3,0-4.54,0-.38-.22-.53-.6-.41l-.62.19L29.14,16.27c-1.95.57-3.9,1.14-5.85,1.69-.5.14-.87.29-.86.92C22.45,20.52,22.43,22.15,22.43,24Z"/><path class="cls-1" d="M57.5,59.15V25.42a18.88,18.88,0,0,1,3.34,1.94A32.51,32.51,0,0,1,70.37,37a21.28,21.28,0,0,1,2.79,6.67c0,.17.1.33.13.5.07.38,0,.71-.41.84a.61.61,0,0,1-.75-.35c-.35-.6-.69-1.2-1-1.79a17.66,17.66,0,0,0-5.24-5.67,9.16,9.16,0,0,0-4.13-1.43c-.77-.08-.87,0-.91.84,0,.26,0,.52,0,.78l0,27.91A7.19,7.19,0,0,1,55.5,72.4c-3.18.71-6-.06-7.94-3a7.17,7.17,0,0,1,8.9-10.48A1.42,1.42,0,0,0,57.5,59.15Z"/></svg>