<svg id="Layer_1" data-name="Layer 1" xmlns="http://www.w3.org/2000/svg" viewBox="0 0 148.7 491.23"><defs><style>.cls-1{fill:#b7191a;}.cls-2{fill:#e9bb54;}</style></defs><path class="cls-1" d="M138.33.32c0,11.9,0,23.79.12,35.68.17,31.27.41,62.54.48,93.8,0,4-1.38,7.83-2.26,11.7q-7.68,33.69-15.43,67.34c-.42,1.85-.78,3.72-1.16,5.58-2.82,12.4-5.27,24.87-7.51,37.39-1.22,6.86-2.48,13.71-3.32,20.63a5.69,5.69,0,0,0-.25.87A506.14,506.14,0,0,0,104,326c-1,27.57.76,54.9,6.62,81.91s15.79,52.62,28.57,77.11a9.6,9.6,0,0,1,1.82,6c-1.27.58-1.71-.36-2.26-1.19A305.2,305.2,0,0,1,91.61,368.35c-4.65-28.8-5.53-57.79-4.14-86.89,1-21.44,3.22-42.76,6.18-64a6.12,6.12,0,0,0,0-.74c.16-1.09.33-2.17.48-3.26q2.88-20.46,5.77-40.92,1.55-11,3.11-22a10.41,10.41,0,0,0,.26-1.07c3.44-24.72,6.61-49.46,8-74.4a425.25,425.25,0,0,0-.06-52.59c-.51-7.43-1.4-14.81-2.29-22.2L137.14,0A1.5,1.5,0,0,1,138.33.32Z"/><path class="cls-2" d="M103.05,150.54q-1.56,11-3.11,22Q97,193,94.17,213.45c-.15,1.09-.32,2.17-.48,3.26-3.12-9.08-6.18-18.19-9.37-27.24-5.62-15.95-12-31.58-18.63-47.13C54.82,116.83,43.15,91.66,33,65.84A340,340,0,0,1,16.79,13.47C16,9.77,15.44,6,14.68,2.31,14.38.86,14.84.59,16.2.62c4,.06,8.09,0,12.14-.05l29.74,0c.77,0,1.61-.22,2.22.52a172.93,172.93,0,0,0,3.19,21.61C66.73,39.1,71.5,55.12,76.73,71c6.78,20.6,14,41.05,20.6,61.71Q100.18,141.64,103.05,150.54Z"/><path class="cls-2" d="M141,491.05a9.6,9.6,0,0,0-1.82-6c.62-2.29.08-4.57,0-6.85q-.89-15.69-2.14-31.34-1.56-19.41-3.69-38.76-2.91-26.67-7.14-53.14-5.45-34.18-13.23-67.93c-1.14-4.88-2.07-9.81-3.64-14.58.84-6.92,2.1-13.77,3.32-20.63,2.24-12.52,4.69-25,7.51-37.39,2,7.77,3.43,15.65,5,23.51,3.31,16.44,6,33,8.33,49.6,1.65,11.94,3.14,23.91,4.22,35.92.92,10.24,1.87,20.48,2.74,30.72.17,1.95.06,3.93.06,5.89.05,16.79-.08,33.59.17,50.39.34,23.11.14,46.21.35,69.32,0,2.94.2,5.88.24,8.82C141.21,489.4,141.54,490.28,141,491.05Z"/></svg>