<svg id="Layer_1" data-name="Layer 1" xmlns="http://www.w3.org/2000/svg" viewBox="0 0 64.17 60.95"><defs><style>.cls-1{fill:#f58c12;}</style></defs><path class="cls-1" d="M52.33,31.84c-.34-.75-.62-1.42-.94-2.08a17.07,17.07,0,0,0-9.85-8.7,23.68,23.68,0,0,0-8-1.39c-1.49,0-1.49,0-1.45,1.44.18,5.88.35,11.75.55,17.62a7.83,7.83,0,0,1-1.45,5.14,16.23,16.23,0,0,1-13.78,7,6.21,6.21,0,0,1-2.74-.69c-2.93-1.47-3.81-4.62-2.2-7.77A13,13,0,0,1,16,38.12a16.91,16.91,0,0,1,9.6-3.83,12.14,12.14,0,0,1,3.07.33,2.33,2.33,0,0,0,.14-1.55c-.2-7.16-.43-14.33-.64-21.5-.05-1.53-.05-1.53,1.43-1.36A26.55,26.55,0,0,1,52.41,31C52.46,31.24,52.63,31.49,52.33,31.84Z"/></svg>