<svg id="Layer_1" data-name="Layer 1" xmlns="http://www.w3.org/2000/svg" viewBox="0 0 70.43 72.84"><defs><style>.cls-1{fill:#ed1e26;}</style></defs><path class="cls-1" d="M38.07,24.24v6.88c0,6.27,0,12.55,0,18.82a8.24,8.24,0,0,1-3.38,7A13.28,13.28,0,0,1,22.6,59.31a7.61,7.61,0,0,1-3.91-2.45,6.24,6.24,0,0,1-.32-7.7,11.68,11.68,0,0,1,7-4.8,12.33,12.33,0,0,1,8.38.45c.19.08.38.23.63.12a4.25,4.25,0,0,0,.07-1.38V14.47c0-1.55-.23-1.47,1.46-1.47h.64c1.33,0,1.33,0,1.76,1.22A6.5,6.5,0,0,0,40.38,17a29.1,29.1,0,0,0,4.43,2.94A35,35,0,0,1,50,23.39a8.21,8.21,0,0,1,3.08,8.31A18.1,18.1,0,0,1,50.17,38a5.64,5.64,0,0,1-.37-1.56,11,11,0,0,0-6.08-8.93A54.65,54.65,0,0,1,38.07,24.24Z"/></svg>