<svg id="Layer_1" data-name="Layer 1" xmlns="http://www.w3.org/2000/svg" viewBox="0 0 150.26 545.66"><defs><style>.cls-1{fill:#e9bb54;}.cls-2{fill:#50928c;}.cls-3{fill:#b7191a;}</style></defs><path class="cls-1" d="M143.36,440.22q.07,6.79.17,13.6c0,.73-.07,1.47-.07,2.2q0,7.55,0,15.08c0,.76.29,1.67-1.19,1.15a67.08,67.08,0,0,1-24.62-15c-10.27-9.89-16.79-22-21.38-35.36-6.29-18.26-8.46-37.21-9.07-56.36a351.36,351.36,0,0,1,2.05-47.88c1.08-10.47,2.58-20.89,4.31-31.27.54-3.19,1.54-6.31,1.59-9.58.7-5.33,2.37-10.44,3.64-15.64,6.45-26.59,13.15-53.11,17.94-80.08a385.83,385.83,0,0,0,6-54.34,219.3,219.3,0,0,0-2.08-41C118,68.57,113.18,52.16,104.8,36.9,97.59,23.79,88.35,12.41,76.12,3.62c-.92-.66-1.76-1.55-3-1.7l0,0c-.21-.61-.72-.72-1.27-.78-.25-.14-.67-.34-.25-.61A2.55,2.55,0,0,1,72.89.42Q106,.22,139.1,0c1.71,0,1.8.69,1.82,2.05.38,27.28.14,54.56.45,81.83.19,16.79,0,33.59.29,50.38.3,19.61.24,39.23.33,58.84,0,.43,0,.86.07,1.29l0,30a22.7,22.7,0,0,1-.36,4.18,336.74,336.74,0,0,1-9.4,38.13c-9.09,29.35-15.44,59.21-17.26,89.94-.85,14.35-.55,28.65,2.3,42.81,2.28,11.31,6.14,21.95,13.71,30.89,2.81,3.32,5.86,6.41,9.84,8.38l0,0c.1.4.4.45.75.41l0,0,.54.4Z"/><path class="cls-2" d="M73.14,1.92c1.22.15,2.06,1,3,1.7C88.35,12.41,97.59,23.79,104.8,36.9c8.38,15.26,13.24,31.67,15.87,48.83a219.3,219.3,0,0,1,2.08,41,385.83,385.83,0,0,1-6,54.34c-4.79,27-11.49,53.49-17.94,80.08-1.27,5.2-2.94,10.31-3.64,15.64-.34.16-.28.5-.35.79-2.43,10.5-4.76,21-6.79,31.6a316.33,316.33,0,0,0-5.92,48.28A237.64,237.64,0,0,0,85,405.67c2.54,15.07,6.75,29.6,14.31,43,10.11,18,24.79,30.42,44.46,36.87,0,11.46,0,22.93.08,34.4,0,1.66-.28,1.86-1.89,1.35-15.76-5-28.79-14.13-39.72-26.42C92.36,483.73,84.93,471,78.8,457.52a178.19,178.19,0,0,1-12.7-39,191.16,191.16,0,0,1-3.25-23.95c-.44-6.24-.74-12.48-.64-18.73.16-8.94.79-17.84,1.74-26.72,1.08-10.08,2.63-20.1,4.51-30.06,3.88-20.6,8.82-41,14.1-61.24q7.5-28.74,14.69-57.55c4.12-16.65,8-33.37,11.38-50.19a240.09,240.09,0,0,0,4.63-31.88A193.58,193.58,0,0,0,112.7,83a139,139,0,0,0-11.21-41.61A117.77,117.77,0,0,0,80.88,10.05a102,102,0,0,0-7.3-7.26C73.34,2.57,72.91,2.4,73.14,1.92Z"/><path class="cls-1" d="M76.48,470.72A82.54,82.54,0,0,1,62.79,454c-9.36-14.55-14.58-30.62-17.55-47.52a239.86,239.86,0,0,1-3.05-31c-.35-7.68,0-15.32.22-23,.42-11.53,1.66-23,3.15-34.46C47.48,303.49,50,289,52.85,274.48c3-15.17,6.46-30.21,10.13-45.21,3.89-15.91,8.15-31.71,12.5-47.5,2.33-8.48,4.86-16.91,6.63-25.53,1.36-6.57,2.48-13.17,3.26-19.84a182.45,182.45,0,0,0,1-31.17,146.08,146.08,0,0,0-6-34.17A135.48,135.48,0,0,0,67.15,40.68,132.3,132.3,0,0,0,50,17.81,115.12,115.12,0,0,0,31.06,1.35c-.24-.17-.43-.39-.94-.85H41.6a2.89,2.89,0,0,1,1.87,1.05A153.71,153.71,0,0,1,76,41.89,125.17,125.17,0,0,1,90.22,80.71a182.3,182.3,0,0,1,2.32,21.36A188.25,188.25,0,0,1,92.2,132a227.57,227.57,0,0,1-6.36,35c-5.1,19.87-10.43,39.68-15.38,59.59-6.46,26-12.63,52.14-17.2,78.59-2.29,13.28-4.07,26.63-5.21,40.06a286.6,286.6,0,0,0-1,32.89c.54,18.39,3,36.49,9,54A124.6,124.6,0,0,0,75.8,469.31c.32.41.83.77.66,1.43Z"/><path class="cls-3" d="M143.36,440.22l-1.21-.76-.54-.4,0,0c-.19-.25-.28-.69-.75-.41l0,0c.24-.49-.24-.6-.46-.82a55.53,55.53,0,0,1-7.07-8.68c-8.43-12.79-12-27.09-13.07-42.16-.72-10.51.23-20.94,1.52-31.36a493.1,493.1,0,0,1,17.65-82.17c.8-2.61,1.71-5.2,2.56-7.8.41,6.47.38,12.84.42,19.22,0,5.39.16,10.77.24,16.16,0,.74-.07,1.47-.07,2.2q.38,67.47.76,134.92C143.4,438.88,143.37,439.55,143.36,440.22Z"/></svg>