<svg id="Layer_1" data-name="Layer 1" xmlns="http://www.w3.org/2000/svg" viewBox="0 0 432 113.26"><defs><style>.cls-1{fill:#5bc6a4;}.cls-2{fill:#b71819;}.cls-3{fill:#eabc54;}</style></defs><path class="cls-1" d="M384.45,61.3c-4.05.32-8.12.18-12.18.16A216.6,216.6,0,0,1,326.75,56c-12.43-2.74-24.56-6.57-36.69-10.38C272,40,253.9,34.13,235.58,29.18c-12.66-3.42-25.43-6.41-38.31-8.85-8.31-1.57-16.66-2.83-25.05-3.87s-17.08-1.82-25.66-2.25c-4.39-.22-8.79-.31-13.18-.36a291.37,291.37,0,0,0-31.12,1.45,277.09,277.09,0,0,0-41.65,7.28A279.9,279.9,0,0,0,14.66,38.65c-4.44,2-8.84,4.05-13.15,6.31A2.38,2.38,0,0,1,0,45.39V.19H219.2a8.12,8.12,0,0,0,3.46.73A242.38,242.38,0,0,1,249.54,6c15.71,3.9,30.65,9.9,45.26,16.77C308.55,29.2,322,36.21,335.53,43.18A200.73,200.73,0,0,0,373.26,58.4C377,59.45,380.72,60.34,384.45,61.3Z"/><path class="cls-2" d="M384.45,61.3c-3.73-1-7.48-1.85-11.19-2.9a200.73,200.73,0,0,1-37.73-15.22c-13.5-7-27-14-40.73-20.44C280.19,15.87,265.25,9.87,249.54,6a242.38,242.38,0,0,0-26.88-5A8.12,8.12,0,0,1,219.2.19H432v62a75.55,75.55,0,0,1-17.21,2,132.46,132.46,0,0,1-28.36-2.61C385.78,61.44,385.11,61.38,384.45,61.3Z"/><path class="cls-3" d="M0,51a7.33,7.33,0,0,0,2.19-.94,284.53,284.53,0,0,1,44-17.93A275.35,275.35,0,0,1,83,23.31c7.22-1.19,14.47-2.09,21.76-2.81a299.24,299.24,0,0,1,38.92-1c7.91.26,15.8,1,23.68,1.8a419.49,419.49,0,0,1,48.91,8.48c.19,0,.37.11.69.21a7,7,0,0,1-3,.48c-3.4,0-6.8,0-10.2.09-7.32.16-14.61.8-21.9,1.53a296.56,296.56,0,0,0-36.76,6.19A347,347,0,0,0,91,55.69,390.12,390.12,0,0,0,17.11,95.88c-5.26,3.63-10.44,7.39-15.38,11.45-.5.41-1,1-1.73.86Z"/></svg>