<svg id="Layer_1" data-name="Layer 1" xmlns="http://www.w3.org/2000/svg" viewBox="0 0 280.17 261.39"><defs><style>.cls-1{fill:#80604e;}</style></defs><path class="cls-1" d="M278.53,247.91a55.45,55.45,0,0,1-8.47,1.33A191.53,191.53,0,0,1,240,251.16c-15.08-.46-29.36-3.7-42.09-12.27-12.42-8.36-19.34-20.12-21.76-34.77-1.46-8.85-1.75-17.8-2.53-26.71-.69-7.89-1.74-15.72-4.57-23.18-4.72-12.44-13.49-21.45-24.46-28.52-11.46-7.37-24.13-11.81-37.26-15.12-14.24-3.58-28.75-6-42.84-10.25-12.28-3.67-24-8.56-34.13-16.63-9-7.17-16.07-15.78-19.52-27-2.67-8.64-2.58-17.39-1-26.19,2-11,6.1-21.39,10.32-31.71a.57.57,0,0,1,.65-.41c.38.74-.23,1.34-.48,1.93A172.19,172.19,0,0,0,11.52,26.4C8.8,38,8.38,49.58,13.12,60.86,17.37,70.94,24.52,78.62,33.24,85c10.51,7.66,22.44,12.16,34.84,15.6,11.92,3.3,24.07,5.61,36.09,8.49,13.63,3.27,26.88,7.5,38.94,14.87,11.06,6.76,20.14,15.38,25.53,27.41,3.12,6.95,4.49,14.34,5.33,21.86,1,8.65,1.11,17.38,2.22,26,1.17,9.07,3.29,17.84,8.46,25.57,6.06,9,14.51,15.12,24.4,19.38,11.31,4.86,23.22,6.29,35.38,6.24,10.63,0,21.16-1.32,31.67-2.75A3.16,3.16,0,0,1,278.53,247.91Z"/><path class="cls-1" d="M49.3-1.38c.13.81-.4,1.45-.68,2.14C44.84,9.88,41.46,19.11,40.19,29c-1.95,15.1,2.29,28.1,13.18,38.83,9.69,9.55,21.63,15,34.45,18.83C99,90,110.54,92.12,121.93,94.71c11.62,2.64,23,6,33.47,11.79,10.17,5.61,18.82,12.85,24.41,23.25a56.85,56.85,0,0,1,5.93,20.34c1,8.09,1.61,16.22,2.62,24.3,1.45,11.62,5.46,22.1,14.34,30.2,8,7.3,17.53,11.54,28,13.78s21.05,2.15,31.66,1.27q7-.57,13.87-1.57a.72.72,0,0,1,.91.4c-1.78.78-3.67.72-5.46.94-10.18,1.22-20.38,2-30.63,1.19-14.19-1.18-27.24-5.3-38.16-14.88-7.66-6.72-12.08-15.28-14.22-25.13-1.77-8.11-2.16-16.39-3-24.62-.92-9.11-2.32-18.12-6.78-26.32-4.95-9.09-12.42-15.69-21.17-21-11.16-6.7-23.44-10.37-36-13.25s-25.06-5.11-37.25-9.09c-12-3.92-23.11-9.46-32.13-18.56-9.9-10-14.33-22-13.18-36,.94-11.54,5-22.15,9.38-32.68C48.65-1.17,48.77-1.49,49.3-1.38Z"/><path class="cls-1" d="M276,189.08c-1.62.69-3.4.62-5.11.82-13.31,1.52-26.57,1.71-39.44-2.77-17.18-6-28.13-17.46-31.38-35.74-1.29-7.25-2-14.57-2.84-21.87-2.21-18.74-12.61-31.21-29.16-39.24-9.56-4.63-19.72-7.29-30-9.51-11.9-2.57-23.91-4.71-35.31-9.18-9.86-3.87-18.59-9.36-25.27-17.74-7.1-8.91-9.25-19.15-7.9-30.26,1-8.16,3.65-15.84,6.9-23.34.24-.56.36-1.28,1.07-1.62.48.78-.12,1.24-.33,1.74a89.71,89.71,0,0,0-6.7,22.08C68.1,39,73.75,52.14,87,62.14c8.47,6.38,18.14,10.06,28.26,12.76,11.12,3,22.5,4.78,33.64,7.69,11.9,3.11,23.1,7.65,32.73,15.57,9.12,7.49,14,17.28,15.9,28.76,1.22,7.25,1.82,14.58,2.83,21.87,2.85,20.7,15,33,34.56,38.63,10.76,3.09,21.77,3.15,32.83,2l8.16-.85Z"/><path class="cls-1" d="M106-1.16c.3.72-.24,1.18-.46,1.69A59.18,59.18,0,0,0,100.19,21c-.74,13.05,4.64,23.12,15.07,30.71,7.84,5.7,16.8,8.69,26.07,10.94,9.45,2.3,19.1,3.75,28.5,6.29a80.5,80.5,0,0,1,17.9,7c12,6.55,19.52,16.31,21.9,29.85,1.1,6.27,2,12.58,3.11,18.85,3.19,18.07,14.45,28.59,31.65,33.34,9.35,2.58,18.89,2.55,28.45,1.32.55-.07,1.09-.14,1.64-.17a1.15,1.15,0,0,1,.45.16c.07.34-.08.52-.36.55-12.36,1.74-24.56,1.58-36.35-3.14-14.14-5.67-23-15.77-26-30.85-1.41-7-2.15-14.15-3.56-21.18-2.7-13.48-10.7-22.63-22.63-28.83-8.63-4.49-17.94-6.75-27.36-8.73-10.23-2.15-20.58-3.85-30.4-7.67-9.13-3.56-17.23-8.57-23-16.74-5.84-8.33-6.92-17.62-5.15-27.41a65.38,65.38,0,0,1,4.78-15C105.14-.22,105.14-1,106-1.16Z"/><path class="cls-1" d="M273.94,129.85c0,.56-.36.59-.66.63-15.42,2.05-29.1-1.45-40.19-12.86-5.07-5.21-7.51-11.79-9.1-18.76-1.25-5.49-2.1-11.06-3.59-16.51-2.85-10.49-9.59-17.54-19.17-22.17-7.45-3.61-15.4-5.53-23.49-7-9.62-1.8-19.3-3.39-28.26-7.64-6.31-3-11.86-7-15.64-13-5.47-8.68-5.47-17.93-2.42-27.4a23.53,23.53,0,0,1,2.83-6.41c.52.89-.05,1.34-.27,1.83C130.64,8.14,129,16,131,24.18c2.31,9.38,8.67,15.4,16.89,19.75,7.63,4,16,5.72,24.32,7.38s16.84,3.14,24.9,6.21c14.19,5.4,22.85,15.27,25.42,30.38a118.35,118.35,0,0,0,3.48,15.77c4.4,14,14.47,21.67,28.15,25.27a47.52,47.52,0,0,0,18.25.87A2.38,2.38,0,0,1,273.94,129.85Z"/><path class="cls-1" d="M272.83,100.6a14.37,14.37,0,0,1-6.91.59c-14.15-1.87-23.34-9.89-28.28-23-1.74-4.64-2.8-9.5-4.17-14.26-3.42-11.9-11.73-18.49-23.23-21.77-7.73-2.21-15.74-3-23.56-4.78-6.92-1.58-13.51-3.89-19.07-8.55A23.82,23.82,0,0,1,161.86,0c.18-.34.26-.85.78-.91a.35.35,0,0,1,.21.57C156.6,11,160.17,26.9,177,33.63c6.94,2.77,14.24,3.94,21.55,5.14A87.7,87.7,0,0,1,214,42.65c10.49,3.77,17.33,10.89,20.34,21.7,1.55,5.53,2.84,11.14,5.09,16.47,5.09,12.07,17.55,20.25,30.1,19.74C270.65,100.52,271.71,100,272.83,100.6Z"/><path class="cls-1" d="M191.11-.77a.52.52,0,0,1,.1.66c-3.3,5.14-.73,13.08,4.24,17.57a24.67,24.67,0,0,0,9.67,5.08c6.13,1.84,12.52,2.21,18.78,3.35a40.12,40.12,0,0,1,11.5,3.67c5.23,2.72,8.62,7.1,11.11,12.32,2.13,4.48,3.58,9.24,5.53,13.79,2.25,5.21,5.32,9.78,10.17,12.94a12.79,12.79,0,0,0,8.36,2.24,5.53,5.53,0,0,1,.91,0c.1,0,.19.12.29.18.1.59-.34.53-.69.57a13.81,13.81,0,0,1-10-2.85,28.56,28.56,0,0,1-9.51-12.37c-1.75-4.17-3.39-8.39-5-12.61-3.78-9.67-11-14.94-21-16.81-6.32-1.17-12.76-1.58-19-3.21-6.88-1.81-12.78-5-16-11.78a13.37,13.37,0,0,1-.72-10.86A3.4,3.4,0,0,1,191.11-.77Z"/></svg>