<svg width="100" height="100" viewBox="0 0 100 100" fill="none" xmlns="http://www.w3.org/2000/svg">
<g clip-path="url(#clip0_203_703)">
<g clip-path="url(#clip1_203_703)">
<path d="M51.1512 85.4C70.8678 85.4 86.8512 69.4166 86.8512 49.7C86.8512 29.9834 70.8678 14 51.1512 14C31.4346 14 15.4512 29.9834 15.4512 49.7C15.4512 69.4166 31.4346 85.4 51.1512 85.4Z" fill="url(#paint0_linear_203_703)"/>
<path d="M61.0518 37.8501C59.8518 37.8501 58.8018 38.9001 58.8018 40.1001C58.8018 41.3001 59.8518 42.3501 61.0518 42.3501C62.2518 42.3501 63.3018 41.3001 63.3018 40.1001C63.3018 38.7501 62.2518 37.8501 61.0518 37.8501Z" fill="white"/>
<path d="M51.3023 40.55C46.2023 40.55 42.1523 44.5999 42.1523 49.6999C42.1523 54.7999 46.2023 58.85 51.3023 58.85C56.4023 58.85 60.4523 54.7999 60.4523 49.6999C60.4523 44.7499 56.4023 40.55 51.3023 40.55ZM51.3023 55.5501C48.0023 55.5501 45.4523 52.8499 45.4523 49.6999C45.4523 46.5499 48.1523 43.85 51.3023 43.85C54.6023 43.85 57.1523 46.5499 57.1523 49.6999C57.1523 52.8499 54.6023 55.5501 51.3023 55.5501Z" fill="white"/>
<path d="M58.6518 68.3001H43.8018C37.6518 68.3001 32.5518 63.3501 32.5518 57.0501V42.1999C32.5518 36.0499 37.5018 30.95 43.8018 30.95H58.6518C64.8018 30.95 69.9018 35.9 69.9018 42.1999V57.0501C69.7518 63.3501 64.8018 68.3001 58.6518 68.3001ZM43.8018 34.7C39.6018 34.7 36.1518 38.15 36.1518 42.35V57.2C36.1518 61.4 39.6018 64.8501 43.8018 64.8501H58.6518C62.8518 64.8501 66.3018 61.4 66.3018 57.2V42.35C66.3018 38.15 62.8518 34.7 58.6518 34.7H43.8018Z" fill="white"/>
</g>
</g>
<defs>
<linearGradient id="paint0_linear_203_703" x1="25.9198" y1="24.4701" x2="76.474" y2="75.0243" gradientUnits="userSpaceOnUse">
<stop offset="0.0011048" stop-color="#FFE185"/>
<stop offset="0.2094" stop-color="#FFBB36"/>
<stop offset="0.3765" stop-color="#FF5176"/>
<stop offset="0.5238" stop-color="#F63395"/>
<stop offset="0.7394" stop-color="#A436D2"/>
<stop offset="1" stop-color="#5F4EED"/>
</linearGradient>
<clipPath id="clip0_203_703">
<rect width="100" height="100" fill="white"/>
</clipPath>
<clipPath id="clip1_203_703">
<rect width="72" height="72" fill="white" transform="translate(15 14)"/>
</clipPath>
</defs>
</svg>
