<svg width="100" height="100" viewBox="0 0 100 100" fill="none" xmlns="http://www.w3.org/2000/svg">
<g clip-path="url(#clip0_203_718)">
<g clip-path="url(#clip1_203_718)">
<path d="M51.2083 84.6776C70.3772 84.6776 85.9167 69.0204 85.9167 49.7062C85.9167 30.3919 70.3772 14.7347 51.2083 14.7347C32.0394 14.7347 16.5 30.3919 16.5 49.7062C16.5 69.0204 32.0394 84.6776 51.2083 84.6776Z" fill="url(#paint0_linear_203_718)"/>
<path d="M37.3548 41.4775H43.334V60.8733H37.3548V41.4775ZM40.2715 31.9265C42.1673 31.9265 43.7715 33.5428 43.7715 35.453C43.7715 37.3632 42.1673 38.9796 40.2715 38.9796C38.3757 38.9796 36.7715 37.3632 36.7715 35.453C36.9173 33.5428 38.3757 31.9265 40.2715 31.9265Z" fill="white"/>
<path d="M46.98 41.4774H52.6675V44.1223H52.8133C53.5425 42.6529 55.5841 41.0366 58.5008 41.0366C64.48 41.0366 65.6466 45.004 65.6466 50.2938V60.8734H59.6675V51.4693C59.6675 49.2652 59.6675 46.3264 56.605 46.3264C53.5425 46.3264 52.9591 48.8244 52.9591 51.3223V60.8734H46.98V41.4774Z" fill="white"/>
</g>
</g>
<defs>
<linearGradient id="paint0_linear_203_718" x1="26.6793" y1="24.988" x2="76.2004" y2="74.1365" gradientUnits="userSpaceOnUse">
<stop stop-color="#007BB8"/>
<stop offset="1" stop-color="#0044E9"/>
</linearGradient>
<clipPath id="clip0_203_718">
<rect width="100" height="100" fill="white"/>
</clipPath>
<clipPath id="clip1_203_718">
<rect width="70" height="72" fill="white" transform="translate(16.5 14)"/>
</clipPath>
</defs>
</svg>
