<svg width="1000" height="1000" viewBox="0 0 1000 1000" fill="none" xmlns="http://www.w3.org/2000/svg">
<rect width="1000" height="1000" fill="#FFFDF4"/>
<g clip-path="url(#clip0_113_868)">
<path d="M400.209 464.162C404.293 458.805 407.611 453.449 412.715 449.367C431.856 433.808 453.805 431.767 475.499 441.46C479.327 443.245 479.327 441.97 479.327 438.909C479.327 348.612 479.327 258.315 479.072 168.018C479.072 159.09 481.114 151.693 488.515 146.081C496.172 140.47 506.636 140.725 514.037 146.846C520.163 151.693 523.225 158.835 526.033 165.467C533.434 182.302 546.961 192.76 561.508 202.453C577.077 212.911 594.432 220.053 610.511 230.001C632.715 244.031 648.539 262.651 656.961 287.649C662.831 305.504 662.831 323.87 659.513 342.235C655.43 363.662 646.752 383.047 632.97 400.137C629.907 403.964 626.334 406.514 621.996 408.045C618.423 409.32 614.594 409.83 611.532 406.514C608.469 403.453 608.724 399.627 610.511 396.056C613.063 390.445 616.126 384.833 618.423 378.966C629.652 350.908 629.142 323.87 610 298.872C601.068 287.139 589.327 279.486 576.311 272.854C561.508 265.712 546.195 260.356 531.137 253.724C528.84 252.703 526.543 251.428 524.501 249.897C521.439 247.347 520.673 248.877 520.673 251.683C520.673 259.08 520.418 266.732 520.418 274.13C520.418 344.276 520.418 414.422 520.163 484.568C520.163 501.403 518.631 517.983 513.527 534.053C507.912 551.908 498.214 567.468 486.218 582.007C473.713 597.057 458.91 608.535 442.831 618.738C422.158 631.492 399.699 639.909 375.963 644.246C375.198 644.501 374.177 644.501 373.411 644.756C370.348 645.011 367.796 643.991 367.03 640.93C366.01 638.124 367.796 635.828 370.348 634.553C373.921 632.767 377.239 630.982 380.812 629.451C402.251 620.014 420.882 606.494 437.471 589.914C449.977 577.416 460.952 563.897 468.608 547.827C475.754 532.522 481.114 516.707 478.562 499.617C477.03 488.394 467.587 479.211 455.847 477.171C438.237 474.11 424.2 481.252 412.715 494.006C409.397 497.577 406.845 501.403 403.782 505.229C401.485 508.035 399.954 507.78 397.912 504.719C393.063 497.577 388.469 489.924 381.323 484.823C372.901 478.956 363.968 475.13 353.504 475.13C342.019 475.13 331.044 484.313 327.216 494.006C320.836 509.31 322.877 524.36 329.003 539.154C337.935 560.07 353.504 575.12 372.645 586.854C377.495 589.914 382.599 592.975 387.193 596.291C392.297 600.118 393.829 605.984 391.532 611.341C389.745 615.167 384.13 617.718 378.26 616.698C370.859 615.422 363.713 613.637 356.566 610.831C338.191 603.689 322.367 592.975 308.84 578.946C298.121 567.723 289.699 554.714 285.36 539.409C276.427 508.29 280.256 479.721 302.205 454.724C315.731 439.419 333.086 433.553 353.249 435.593C363.713 436.613 373.921 439.164 382.344 445.541C389.49 450.898 394.85 457.275 400.209 464.162Z" fill="#3A6A7C"/>
<path d="M286.126 811.831C283.318 819.483 269.536 821.779 263.666 817.188C260.859 814.892 259.838 811.321 259.327 808.26C258.306 800.863 259.583 793.721 266.729 789.64C270.557 787.599 270.302 784.283 270.302 780.712C269.791 768.723 272.088 769.488 259.072 769.488C251.671 769.488 245.801 766.683 241.717 760.816C240.186 758.52 238.655 759.03 237.123 760.306C234.061 763.367 230.232 765.152 226.149 766.428C223.341 767.193 222.831 768.468 224.617 771.274C230.232 779.947 236.868 787.599 244.78 794.231C247.842 796.782 253.713 799.077 249.884 805.199C246.822 810.301 240.696 811.321 234.316 808.515C226.914 805.199 221.555 799.332 216.45 793.466C207.518 782.752 199.861 771.019 190.928 760.306C187.1 755.714 184.293 750.358 185.058 743.981C185.569 739.389 187.61 735.308 191.949 733.523C197.564 730.972 202.158 732.502 205.986 737.094C208.028 739.389 210.07 741.43 213.388 740.41C216.45 739.389 217.216 736.329 217.471 733.268C218.492 722.554 211.856 710.821 198.33 712.351C193.736 712.861 189.142 712.606 184.548 712.096C175.615 711.331 169.49 704.699 169.745 696.282C170 690.16 173.063 686.589 179.188 686.589C193.48 686.334 207.773 686.333 222.32 686.333C271.578 686.333 320.58 686.333 369.838 686.333C376.984 686.333 380.302 688.374 382.599 694.496C384.896 700.108 383.62 705.464 379.026 709.801C375.708 712.861 371.624 712.351 367.796 712.351C359.119 712.861 359.119 712.606 362.181 720.514C369.327 738.624 362.947 761.326 345.592 770.254C343.04 771.529 342.784 772.549 344.571 774.845C349.675 781.732 356.056 786.834 362.181 792.445C365.499 795.506 369.072 798.567 367.541 803.669C365.499 810.301 359.374 811.321 352.483 807.24C343.295 801.628 335.893 793.976 329.003 786.068C321.346 777.651 313.945 768.978 308.585 758.775C304.501 750.868 306.033 741.94 311.648 737.349C315.731 734.033 319.559 734.288 323.643 737.349C324.153 737.604 324.409 738.114 324.919 738.369C327.471 740.155 329.258 744.491 333.341 742.45C337.68 740.665 339.722 737.094 340.232 732.502C340.487 730.717 340.743 729.186 340.487 727.401C339.211 713.882 337.17 711.841 323.643 712.096C315.731 712.096 307.819 712.096 300.163 712.351C296.334 712.351 294.803 713.882 294.803 717.963C295.058 739.389 295.313 761.071 295.313 782.497C295.313 787.854 296.845 791.935 300.673 796.016C322.112 816.933 309.095 847.032 287.146 855.704C277.703 859.53 267.75 858.51 258.562 855.449C245.801 851.368 234.826 844.226 226.659 833.513C222.065 827.391 222.065 823.31 226.149 819.483C229.977 815.912 236.868 816.167 241.462 820.504C245.29 824.075 249.374 827.136 253.713 829.687C262.9 834.788 272.344 836.063 282.042 830.707C290.719 825.605 291.74 820.759 286.126 811.831ZM270.557 727.401C270.557 724.085 270.302 720.514 270.557 717.198C270.812 713.627 269.026 712.351 265.708 712.351C258.817 712.606 252.181 712.606 245.29 712.606C241.207 712.606 240.441 714.392 242.228 717.708C245.545 723.83 246.566 730.717 246.566 737.349C246.822 747.297 247.842 748.317 257.796 746.787C259.072 746.532 260.093 746.532 261.369 746.276C268.515 744.746 270.557 742.705 270.557 735.308C270.557 732.502 270.557 729.952 270.557 727.401Z" fill="#DB7036"/>
<path d="M454.316 803.669C442.576 803.159 431.857 800.608 422.158 794.231C417.564 791.425 417.309 787.344 418.075 782.752C418.84 778.161 420.882 774.335 424.966 772.039C427.008 771.019 429.305 771.784 431.346 773.06C437.727 777.396 444.363 780.457 451.764 781.732C461.207 783.518 469.374 779.436 472.182 771.784C474.223 766.173 472.437 761.326 467.332 757.5C461.718 753.419 455.337 752.143 449.212 749.593C442.066 746.787 435.175 743.981 428.794 739.134C414.757 728.166 413.736 704.189 426.752 691.945C440.279 679.191 466.822 677.151 482.646 684.803C490.557 688.629 491.834 700.873 485.198 706.485C483.411 708.015 481.625 707.76 479.583 706.995C474.734 705.209 469.629 703.424 464.78 701.638C459.165 699.853 453.55 700.618 448.191 702.914C443.852 704.699 441.555 708.27 441.045 712.862C440.534 717.963 443.086 721.279 447.425 723.575C454.316 727.146 461.973 729.186 469.374 731.737C477.796 734.798 485.198 739.389 491.323 746.021C498.98 754.184 497.704 775.355 492.344 783.263C482.901 797.547 469.885 802.904 454.316 803.669Z" fill="#3A6A7C"/>
<path d="M744.757 722.299C750.882 719.494 756.242 715.922 762.622 714.647C778.446 711.586 796.056 722.81 795.546 741.685C795.035 758.265 795.291 774.845 795.291 791.17C795.291 795.761 794.015 799.333 789.165 800.608C783.55 801.883 778.191 801.883 773.852 797.547C771.81 795.506 772.321 792.445 772.321 789.64C772.066 775.61 772.066 761.326 772.066 747.297C772.066 736.329 764.154 730.717 754.2 735.563C745.267 739.9 743.991 739.645 744.502 749.848C745.267 763.112 745.012 776.376 745.267 789.64C745.267 793.976 745.012 798.057 739.908 800.098C734.548 802.138 726.381 801.373 723.318 798.057C721.787 796.527 722.042 794.486 722.042 792.7C721.787 774.335 721.787 756.225 721.787 737.859C721.787 721.789 721.787 705.464 722.042 689.394C722.042 682.507 723.829 680.467 730.72 679.702C732.506 679.446 734.038 679.446 735.824 679.702C742.46 680.212 744.502 682.252 744.502 689.139C744.757 700.108 744.757 710.821 744.757 722.299Z" fill="#3A6A7C"/>
<path d="M632.97 792.7C622.506 801.118 611.021 803.924 597.75 799.332C584.479 794.741 579.374 777.651 585.499 764.642C590.604 754.184 599.792 750.358 609.745 748.062C615.105 746.787 620.975 746.532 626.59 746.787C632.715 747.042 634.502 744.491 631.184 739.134C629.142 735.563 626.079 732.247 621.23 732.247C615.105 731.992 609.235 732.502 603.62 735.818C597.495 739.644 593.156 738.369 590.349 732.757C587.286 726.38 588.817 722.299 595.453 719.238C608.469 712.861 621.741 710.566 635.523 715.667C648.284 720.514 654.409 730.207 654.409 743.726C654.409 759.03 654.409 774.08 654.409 789.384C654.409 797.547 653.388 798.822 647.263 799.842C639.606 801.373 635.012 798.822 632.97 792.7ZM632.205 768.723C631.184 767.448 633.991 763.877 629.908 763.622C623.272 763.111 616.636 763.111 610.511 766.427C607.193 768.213 605.151 771.019 605.407 775.1C605.407 778.671 607.193 780.967 610.001 782.497C617.912 786.834 631.95 778.416 632.205 768.723Z" fill="#3A6A7C"/>
<path d="M552.576 792.445C548.237 797.802 542.367 799.587 536.242 801.373C525.012 804.434 509.444 799.332 505.105 785.048C501.021 772.294 508.168 756.99 520.673 752.143C529.606 748.572 538.794 747.807 548.237 748.317C551.81 748.572 553.342 748.062 552.831 743.471C552.065 738.114 549.513 735.053 544.409 733.778C537.263 731.992 530.116 732.757 523.736 736.584C517.355 740.155 514.038 739.644 511.23 734.798C507.912 728.931 509.188 723.575 514.803 720.514C529.606 713.116 544.664 710.821 559.722 719.238C569.42 724.595 574.525 733.268 574.78 744.236C575.035 760.051 574.525 775.865 574.525 791.935C574.525 796.527 572.483 799.077 567.634 799.842C559.467 800.863 556.149 799.332 552.576 792.445ZM552.321 768.978C551.045 767.703 554.618 763.622 549.768 763.622C544.154 763.367 538.539 763.111 533.179 765.407C528.84 767.193 525.778 770.764 525.523 775.355C525.267 778.926 528.075 781.732 531.137 783.263C539.56 787.089 552.576 778.416 552.321 768.978Z" fill="#3A6A7C"/>
<path d="M353.249 353.458C370.859 351.673 387.448 368.508 387.448 387.384C387.448 410.851 373.411 426.41 352.228 426.665C333.852 426.92 318.539 410.341 317.518 390.7C316.497 369.273 332.831 352.438 353.249 353.458Z" fill="#DB7036"/>
<path d="M467.332 387.639C467.077 405.494 456.868 420.033 442.831 424.88C429.56 429.471 415.267 424.37 407.1 411.616C396.891 395.546 397.912 376.925 410.929 363.661C427.518 346.571 453.806 349.887 464.014 372.589C466.056 377.436 468.098 382.792 467.332 387.639Z" fill="#DB7036"/>
<path d="M671.764 761.581C671.764 754.439 671.508 747.297 671.764 740.155C671.764 736.584 670.998 735.308 667.425 735.053C659.002 734.543 655.174 725.105 660.279 718.218C662.065 715.922 664.362 715.922 666.659 715.922C670.998 716.177 672.019 714.137 671.764 710.056C671.508 705.974 671.764 701.893 672.019 697.812C672.274 692.455 676.613 690.925 680.951 690.16C685.545 689.139 689.884 690.415 693.202 693.731C693.968 694.496 693.712 696.281 693.712 697.557C693.712 701.893 693.968 706.485 693.712 710.821C693.202 715.157 695.244 716.177 699.072 715.922C702.39 715.667 705.963 715.667 709.281 715.922C714.896 716.177 717.193 719.493 716.938 725.87C716.938 731.737 714.13 734.798 709.026 735.053C705.197 735.308 701.624 735.308 697.796 735.053C694.223 734.798 693.712 736.328 693.712 739.134C693.712 750.613 693.712 762.346 693.968 773.825C693.968 781.222 697.541 783.773 704.942 782.242C713.109 780.457 714.641 780.967 716.427 786.068C718.469 792.19 715.917 797.292 709.536 799.843C699.327 803.669 689.629 801.883 680.441 797.292C675.081 794.741 672.529 789.639 672.274 783.518C672.019 776.376 672.019 768.978 671.764 761.581C672.019 761.581 672.019 761.581 671.764 761.581Z" fill="#3A6A7C"/>
<path d="M806.01 759.285C806.01 748.317 806.265 737.604 806.01 726.636C805.754 721.534 808.307 719.493 812.645 718.728C816.984 717.708 821.068 718.473 825.151 720.004C829.235 721.534 829.235 725.105 829.235 728.421C829.235 746.021 828.98 763.622 828.98 780.967C828.98 785.048 828.724 789.129 828.724 793.211C828.724 797.037 826.427 799.077 822.854 799.843C820.557 800.353 818.005 800.608 815.708 800.608C808.307 800.608 806.01 798.312 806.01 790.915C806.01 780.457 806.01 769.744 806.01 759.285Z" fill="#3A6A7C"/>
<path d="M803.968 691.945C803.968 685.568 809.327 680.467 816.218 680.467C823.62 680.467 830 686.078 829.745 692.71C829.745 699.342 823.875 704.189 816.729 703.934C809.327 703.679 803.968 698.832 803.968 691.945Z" fill="#3A6A7C"/>
</g>
<defs>
<clipPath id="clip0_113_868">
<rect width="660" height="716" fill="white" transform="translate(170 142)"/>
</clipPath>
</defs>
</svg>
